<?xml version="1.0" encoding="UTF-8" standalone="no"?>
<!DOCTYPE svg PUBLIC "-//W3C//DTD SVG 1.1//EN" "http://www.w3.org/Graphics/SVG/1.1/DTD/svg11.dtd">
<svg version="1.1" xmlns="http://www.w3.org/2000/svg" xmlns:xlink="http://www.w3.org/1999/xlink" preserveAspectRatio="xMidYMid meet" viewBox="0 0 640 640" width="1000" height="1000"><defs><path d="M52.13 353.33C59.46 345.6 68.41 339.58 78.34 335.71C87.09 332.31 88.82 331.63 95.22 329.15C112.63 322.37 131.81 321.59 149.72 326.93C156.39 328.92 152.73 327.83 160.39 330.11C175.48 334.61 190.24 340.19 204.53 346.8C225.27 356.4 266.43 375.44 287.27 385.08C300.97 391.42 316.14 393.91 331.15 392.29C340.26 391.3 343.74 390.93 352.63 389.97C365.54 388.57 374.46 376.39 371.9 363.66C370.72 357.76 370.39 356.13 368.82 348.32C366.98 339.18 368.41 329.69 372.85 321.49C374.86 317.8 374.07 319.26 376.09 315.53C380.51 307.38 387.34 300.8 395.64 296.68C397.62 295.7 398.21 295.41 402.04 293.51C404.37 292.36 406.83 291.47 409.36 290.88C416.34 289.25 419.32 288.55 422.76 287.74C436.91 284.43 451.62 284.29 465.82 287.34C494.54 293.51 522.45 308.71 549.55 332.93C582.98 362.81 609.5 397.12 629.11 435.84L30.1 435.84C30.1 415.86 30.1 403.37 30.1 398.38C30.1 384.39 35.46 370.93 45.08 360.78C48.72 356.94 47.72 357.98 52.13 353.33Z" id="a15TaVgWGh"></path><path d="" id="ap1eFiI78"></path></defs><g><g><g><use xlink:href="#a15TaVgWGh" opacity="1" fill="#4bbdec" fill-opacity="1"></use><g><use xlink:href="#a15TaVgWGh" opacity="1" fill-opacity="0" stroke="#000000" stroke-width="0" stroke-opacity="1"></use></g></g><g><g><use xlink:href="#ap1eFiI78" opacity="1" fill-opacity="0" stroke="#000000" stroke-width="1" stroke-opacity="1"></use></g></g></g></g></svg>